<svg viewbox="0 0 64 64" xmlns="http://www.w3.org/2000/svg" height="96" width="96"><path d="M 24.966176,15.171041 43.583397,4.6215311 c 2.363646,-1.3393776 7.373688,-1.2859007 9.808022,0.1553481 L 72.399673,16.031948 C 76.028111,18.180452 77.626,21.852397 77.626,26.955421 v 17.935578 c 0,5.143886 -1.624326,8.645702 -6.578401,11.548535 L 52.94282,67.047698 c -2.210269,1.295034 -6.717338,1.372989 -9.07217,0.05292 L 24.799112,56.410165 C 21.75568,54.704632 18.938,50.140239 18.938,45.419557 V 26.229619 c 0,-4.399066 2.284707,-8.937379 6.028176,-11.058578 z m 11.099345,9.858448 9.754583,-5.521429 c 1.238448,-0.70104 3.863563,-0.673078 5.139044,0.08134 l 9.959615,5.89106 c 1.901173,1.124152 2.738368,3.046036 2.738368,5.716978 v 9.387321 c 0,2.692691 -0.85107,4.525132 -3.446842,6.044431 l -9.486175,5.552215 c -1.158103,0.677879 -3.519686,0.718646 -4.753166,0.02824 l -9.993085,-5.5959 C 34.383257,45.720931 32.906869,43.332156 32.906869,40.861378 V 30.817549 c 0,-2.302439 1.197103,-4.678032 3.158652,-5.78806 z m -14.73922,45.704559 7.375375,-4.179602 c 0.936383,-0.530629 2.921182,-0.509446 3.885596,0.06157 l 7.530439,4.459227 c 1.437482,0.851215 2.070487,2.306021 2.070487,4.327892 v 7.106068 c 0,2.037971 -0.643505,3.42546 -2.606272,4.57569 l -7.171936,4.202856 c -0.875633,0.513118 -2.661117,0.543905 -3.594031,0.021 L 21.259925,87.073407 C 20.05429,86.397126 18.938,84.588881 18.938,82.718591 v -7.603084 c 0,-1.742905 0.905163,-3.540982 2.388301,-4.381459 z" fill-rule="evenodd"></path></svg>